<svg width="30" height="54" viewBox="0 0 30 54" fill="none" xmlns="http://www.w3.org/2000/svg">
<path d="M14.5694 36.6667C13.4527 36.6667 12.511 36.2712 11.7442 35.4802C10.9756 34.6892 10.6378 33.7587 10.7308 32.6885C10.8704 30.7344 11.3357 29.0361 12.1267 27.5938C12.9177 26.1514 14.1739 24.6625 15.8954 23.1271C17.8031 21.4521 19.2566 19.9976 20.256 18.7637C21.2573 17.5317 21.7579 16.1247 21.7579 14.5427C21.7579 12.6351 21.1186 11.0531 19.8401 9.79688C18.5596 8.54063 16.7795 7.9125 14.4996 7.9125C13.0107 7.9125 11.7433 8.2261 10.6973 8.85329C9.64954 9.48235 8.79994 10.2622 8.14856 11.1927C7.49717 12.1233 6.69503 12.7514 5.74214 13.0771C4.78739 13.4028 3.868 13.3795 2.98397 13.0073C1.91383 12.542 1.18149 11.7743 0.78693 10.7042C0.390513 9.63403 0.471472 8.63368 1.02981 7.70312C2.37911 5.60938 4.19369 3.86458 6.47356 2.46875C8.75342 1.07292 11.4288 0.375 14.4996 0.375C19.385 0.375 23.1426 1.7364 25.7723 4.45921C28.4002 7.18015 29.7142 10.4483 29.7142 14.2635C29.7142 16.5899 29.2145 18.5795 28.2151 20.2321C27.2138 21.8829 25.643 23.7552 23.5027 25.849C21.9208 27.3378 20.8041 28.5476 20.1527 29.4781C19.5013 30.4087 19.0593 31.4788 18.8267 32.6885C18.6406 33.8517 18.152 34.8056 17.3611 35.55C16.5701 36.2944 15.6395 36.6667 14.5694 36.6667ZM14.4996 53.4167C12.9642 53.4167 11.6502 52.8704 10.5578 51.778C9.46343 50.6836 8.91626 49.3688 8.91626 47.8333C8.91626 46.2979 9.46343 44.983 10.5578 43.8887C11.6502 42.7962 12.9642 42.25 14.4996 42.25C16.035 42.25 17.3499 42.7962 18.4442 43.8887C19.5367 44.983 20.0829 46.2979 20.0829 47.8333C20.0829 49.3688 19.5367 50.6836 18.4442 51.778C17.3499 52.8704 16.035 53.4167 14.4996 53.4167Z" fill="#212AFF"/>
</svg>
