<svg width="50" height="50" viewBox="0 0 50 50" fill="none" xmlns="http://www.w3.org/2000/svg">
<path d="M35.2708 31.0833H33.0654L32.2838 30.3296C35.1142 27.0467 36.6698 22.8554 36.6667 18.5208C36.6667 14.9319 35.6024 11.4236 33.6086 8.43956C31.6147 5.45549 28.7807 3.12969 25.465 1.75628C22.1492 0.382862 18.5007 0.0235143 14.9808 0.723675C11.4608 1.42384 8.22754 3.15206 5.6898 5.6898C3.15206 8.22754 1.42384 11.4608 0.723675 14.9808C0.0235143 18.5007 0.382862 22.1492 1.75628 25.465C3.12969 28.7807 5.45549 31.6147 8.43956 33.6086C11.4236 35.6024 14.9319 36.6667 18.5208 36.6667C23.0154 36.6667 27.1471 35.0196 30.3296 32.2838L31.0833 33.0654V35.2708L45.0417 49.2013L49.2013 45.0417L35.2708 31.0833ZM18.5208 31.0833C11.5696 31.0833 5.95834 25.4721 5.95834 18.5208C5.95834 11.5696 11.5696 5.95834 18.5208 5.95834C25.4721 5.95834 31.0833 11.5696 31.0833 18.5208C31.0833 25.4721 25.4721 31.0833 18.5208 31.0833Z" fill="#212AFF"/>
</svg>
