<svg width="67" height="47" viewBox="0 0 67 47" fill="none" xmlns="http://www.w3.org/2000/svg">
<path d="M0 0.5625V4.75H39.7812V36.1562H26.8921C25.9583 32.5571 22.7214 29.875 18.8438 29.875C14.9661 29.875 11.7292 32.5571 10.7954 36.1562H8.375V25.6875H4.1875V40.3438H10.7954C11.7292 43.9429 14.9661 46.625 18.8438 46.625C22.7214 46.625 25.9583 43.9429 26.8921 40.3438H44.2954C45.2292 43.9429 48.4661 46.625 52.3438 46.625C56.2214 46.625 59.4583 43.9429 60.3921 40.3438H67V23.2671L66.8681 22.9384L62.6806 10.3759L62.2262 8.9375H43.9688V0.5625H0ZM2.09375 8.9375V13.125H20.9375V8.9375H2.09375ZM43.9688 13.125H59.2133L62.8125 23.8555V36.1562H60.3921C59.4583 32.5571 56.2214 29.875 52.3438 29.875C48.4661 29.875 45.2292 32.5571 44.2954 36.1562H43.9688V13.125ZM4.1875 17.3125V21.5H16.75V17.3125H4.1875ZM18.8438 34.0625C21.1825 34.0625 23.0312 35.9113 23.0312 38.25C23.0312 40.5887 21.1825 42.4375 18.8438 42.4375C16.505 42.4375 14.6562 40.5887 14.6562 38.25C14.6562 35.9113 16.505 34.0625 18.8438 34.0625ZM52.3438 34.0625C54.6825 34.0625 56.5312 35.9113 56.5312 38.25C56.5312 40.5887 54.6825 42.4375 52.3438 42.4375C50.005 42.4375 48.1562 40.5887 48.1562 38.25C48.1562 35.9113 50.005 34.0625 52.3438 34.0625Z" fill="#212AFF"/>
</svg>
